<svg width="20" height="20" viewBox="0 0 20 20" fill="#000" xmlns="http://www.w3.org/2000/svg">
<path d="M17.14 10.94C17.18 10.64 17.2 10.33 17.2 9.99999C17.2 9.67999 17.18 9.35999 17.13 9.05999L19.16 7.47999C19.34 7.33999 19.39 7.06999 19.28 6.86999L17.36 3.54999C17.24 3.32999 16.99 3.25999 16.77 3.32999L14.38 4.28999C13.88 3.90999 13.35 3.58999 12.76 3.34999L12.4 0.809994C12.36 0.569994 12.16 0.399994 11.92 0.399994H8.08C7.84 0.399994 7.65 0.569994 7.61 0.809994L7.25 3.34999C6.66 3.58999 6.12 3.91999 5.63 4.28999L3.24 3.32999C3.02 3.24999 2.77 3.32999 2.65 3.54999L0.739999 6.86999C0.619999 7.07999 0.659999 7.33999 0.859999 7.47999L2.89 9.05999C2.84 9.35999 2.8 9.68999 2.8 9.99999C2.8 10.31 2.82 10.64 2.87 10.94L0.839999 12.52C0.659999 12.66 0.609999 12.93 0.719999 13.13L2.64 16.45C2.76 16.67 3.01 16.74 3.23 16.67L5.62 15.71C6.12 16.09 6.65 16.41 7.24 16.65L7.6 19.19C7.65 19.43 7.84 19.6 8.08 19.6H11.92C12.16 19.6 12.36 19.43 12.39 19.19L12.75 16.65C13.34 16.41 13.88 16.09 14.37 15.71L16.76 16.67C16.98 16.75 17.23 16.67 17.35 16.45L19.27 13.13C19.39 12.91 19.34 12.66 19.15 12.52L17.14 10.94ZM10 13.6C8.02 13.6 6.4 11.98 6.4 9.99999C6.4 8.01999 8.02 6.39999 10 6.39999C11.98 6.39999 13.6 8.01999 13.6 9.99999C13.6 11.98 11.98 13.6 10 13.6Z"  fill-opacity="0.87"/>
</svg>
