<svg width="45" height="55" viewBox="0 0 45 55" fill="none" xmlns="http://www.w3.org/2000/svg">
<path fill-rule="evenodd" clip-rule="evenodd" d="M34.1465 2.63756C43.9843 8.34037 47.1922 21.243 41.204 31.5793C34.2891 43.5552 24.594 38.4227 18.0355 49.757C15.2553 54.5331 9.26712 56.3153 4.7047 53.6777C0.14228 51.0402 -1.35476 44.9096 1.42546 40.1335C7.98394 28.7992 -1.35476 22.9538 5.56015 10.9779C11.477 0.71286 24.3088 -2.99397 34.1465 2.63756ZM11.4057 41.987C13.6157 43.2701 14.3998 46.1215 13.1167 48.3313C11.8335 50.5412 8.98197 51.3253 6.77204 50.0422C4.56212 48.759 3.77796 45.9076 5.06114 43.6978C6.34432 41.488 9.19583 40.7038 11.4057 41.987ZM27.5881 26.5181C22.5979 35.2149 16.1107 40.7751 13.1167 39.0643C10.1226 37.3534 11.7622 28.8705 16.7523 20.245C28.0871 0.499003 38.9941 6.7721 27.5881 26.5181Z" fill="#F5C400"/>
</svg>
